USFL
nRows=207
nColumns=2
inDegrees=yes
endheader
time	tib_ant_r	
3.09375	 51.673123	
3.12702	 51.658904	
3.16028	 51.638688	
3.19355	 51.633033	
3.22681	 51.624952	
3.26008	 51.605960	
3.29335	 51.663224	
3.32661	 51.669311	
3.35988	 51.676461	
3.39315	 51.699522	
3.42641	 51.730704	
3.45968	 51.747590	
3.49294	 51.768937	
3.52621	 51.777836	
3.55948	 51.762674	
3.59274	 51.756037	
3.62601	 51.759833	
3.65927	 51.769383	
3.69254	 51.789785	
3.72581	 51.783644	
3.75907	 51.771083	
3.79234	 51.759711	
3.8256	 51.749807	
3.85887	 51.751717	
3.89214	 51.763796	
3.9254	 51.763697	
3.95867	 51.761898	
3.99194	 51.752700	
4.0252	 51.753991	
4.05847	 51.760486	
4.09173	 51.765328	
4.125	 51.753929	
4.15827	 51.756921	
4.19153	 51.756167	
4.2248	 51.750037	
4.25806	 51.750841	
4.29133	 51.759448	
4.3246	 51.757662	
4.35786	 51.758478	
4.39113	 51.758616	
4.4244	 51.760989	
4.45766	 51.761491	
4.49093	 51.740994	
4.52419	 51.742826	
4.55746	 51.752603	
4.59073	 51.757785	
4.62399	 51.764647	
4.65726	 51.754009	
4.69052	 51.768690	
4.72379	 51.755914	
4.75706	 51.755012	
4.79032	 51.759519	
4.82359	 51.759135	
4.85685	 51.762265	
4.89012	 51.771357	
4.92339	 51.774766	
4.95665	 51.801793	
4.98992	 51.816523	
5.02319	 51.830342	
5.05645	 51.928067	
5.08972	 51.970815	
5.12298	 51.941162	
5.15625	 51.972780	
5.18952	 52.023957	
5.22278	 51.596152	
5.25605	 51.989604	
5.28931	 51.553621	
5.32258	 51.109227	
5.35585	 50.883933	
5.38911	 50.636378	
5.42238	 50.312810	
5.45565	 49.887192	
5.48891	 49.795602	
5.52218	 49.594618	
5.55544	 49.481125	
5.58871	 50.215038	
5.62198	 50.652517	
5.65524	 50.369356	
5.68851	 49.929050	
5.72177	 49.602157	
5.75504	 49.561736	
5.78831	 49.437055	
5.82157	 49.213677	
5.85484	 49.142707	
5.8881	 48.955020	
5.92137	 48.681697	
5.95464	 48.469548	
5.9879	 48.111027	
6.02117	 47.897370	
6.05444	 47.424759	
6.0877	 47.185734	
6.12097	 47.093269	
6.15423	 46.704663	
6.1875	 47.226219	
6.22077	 47.571500	
6.25403	 47.495479	
6.2873	 47.403902	
6.32056	 47.321310	
6.35383	 46.789299	
6.3871	 46.619623	
6.42036	 46.426503	
6.45363	 46.412106	
6.4869	 46.295663	
6.52016	 46.255464	
6.55343	 46.206858	
6.58669	 46.155461	
6.61996	 46.104004	
6.65323	 46.161878	
6.68649	 46.276463	
6.71976	 46.184675	
6.75302	 46.170462	
6.78629	 46.180594	
6.81956	 47.088372	
6.85282	 47.038276	
6.88609	 47.153974	
6.91935	 47.087204	
6.95262	 47.107750	
6.98589	 47.253578	
7.01915	 47.318753	
7.05242	 47.308033	
7.08569	 47.425913	
7.11895	 47.445277	
7.15222	 47.503619	
7.18548	 47.524178	
7.21875	 47.521393	
7.25202	 47.525241	
7.28528	 47.621444	
7.31855	 47.587893	
7.35181	 47.595547	
7.38508	 47.499038	
7.41835	 47.717918	
7.45161	 47.735762	
7.48488	 47.796295	
7.51815	 47.890853	
7.55141	 47.857848	
7.58468	 47.839231	
7.61794	 47.771888	
7.65121	 47.769465	
7.68448	 47.826293	
7.71774	 47.934611	
7.75101	 47.890229	
7.78427	 48.017800	
7.81754	 48.038348	
7.85081	 48.164978	
7.88407	 48.280080	
7.91734	 48.330771	
7.9506	 48.347040	
7.98387	 48.395268	
8.01714	 48.380098	
8.0504	 48.373105	
8.08367	 48.425468	
8.11694	 48.419444	
8.1502	 48.428989	
8.18347	 48.402554	
8.21673	 48.425588	
8.25	 48.397080	
8.28327	 48.391153	
8.31653	 48.442738	
8.3498	 48.476006	
8.38306	 48.434545	
8.41633	 48.422112	
8.4496	 48.442235	
8.48286	 48.477976	
8.51613	 48.519094	
8.5494	 48.551814	
8.58266	 48.548537	
8.61593	 48.568616	
8.64919	 48.560293	
8.68246	 48.562112	
8.71573	 48.561152	
8.74899	 48.571198	
8.78226	 48.566034	
8.81552	 48.523448	
8.84879	 48.554531	
8.88206	 48.589495	
8.91532	 48.564465	
8.94859	 48.591673	
8.98185	 48.607240	
9.01512	 48.668870	
9.04839	 48.702012	
9.08165	 48.708677	
9.11492	 48.702151	
9.14819	 48.764201	
9.18145	 48.700592	
9.21472	 48.793317	
9.24798	 48.755222	
9.28125	 48.776187	
9.31452	 48.770753	
9.34778	 48.812702	
9.38105	 48.800090	
9.41431	 48.798681	
9.44758	 48.772166	
9.48085	 48.801240	
9.51411	 48.786999	
9.54738	 48.694796	
9.58065	 48.706494	
9.61391	 48.723666	
9.64718	 48.794536	
9.68044	 49.154948	
9.71371	 49.719666	
9.74698	 49.779277	
9.78024	 50.557878	
9.81351	 54.980096	
9.84677	 58.508968	
9.88004	 61.622141	
9.91331	 61.980730	
9.94657	 61.912060	
